<svg width="567" height="470" viewBox="0 0 567 470" fill="none" xmlns="http://www.w3.org/2000/svg">
<path d="M179.454 244.521L12.5714 179.947C2.1351 175.908 -2.96192 164.31 2.3347 154.507C19.8088 122.165 62.5134 60.405 140.244 24.6058C203.145 -4.3636 270.718 -2.31229 311.837 5.03351C324.689 7.32971 330.323 21.6133 323.732 32.8229L204.299 235.92C199.268 244.475 188.749 248.115 179.455 244.519L179.454 244.521Z" fill="#FFE478"/>
<path d="M485.377 230.8L387.677 257.913C382.114 259.456 377.374 263.13 374.481 268.141L330.974 343.465C326.179 351.768 327.266 362.226 333.664 369.359L417.389 462.678C424.187 470.256 435.265 472.189 444.214 467.361L537.764 416.88C543.255 413.917 547.238 408.762 548.728 402.688L565.545 334.171C567.054 328.02 565.863 321.513 562.273 316.301L509.385 239.542C504.05 231.8 494.416 228.292 485.375 230.802L485.377 230.8Z" fill="#DAEBFF"/>
</svg>
