<svg width="472" height="504" viewBox="0 0 472 504" fill="none" xmlns="http://www.w3.org/2000/svg">
<path d="M70.094 56.127C-0.432495 118.736 -5.6027 202.055 3.3659 252.95C5.8929 267.285 21.7577 273.642 34.3338 266.315C106.01 224.59 158.867 174.24 179.48 154.207C212.193 122.385 252.2 72.611 277.167 38.278C285.739 26.472 280.915 10.1355 266.723 6.5549C219.067 -5.4287 139.829 -5.75239 70.111 56.139L70.094 56.127Z" fill="#1464FF"/>
<path d="M236.383 332.43C226.184 320.784 231.752 302.52 246.703 298.575L445.441 246.151C460.854 242.084 474.99 256.104 471.029 271.528L415.562 487.574C411.396 503.804 390.716 508.686 379.655 496.052L236.383 332.43Z" fill="#F78239"/>
</svg>
