<svg width="523" height="495" viewBox="0 0 523 495" fill="none" xmlns="http://www.w3.org/2000/svg">
<path d="M447.077 238.269L517.047 164.942C522.584 159.14 524.123 150.612 520.995 143.257C520.881 142.988 520.739 142.73 520.58 142.485L436.354 12.4261C436.195 12.1795 436.054 11.9213 435.929 11.6561C431.634 2.6613 421.352 -1.83876 411.794 1.1623L270.864 40.0908C259.888 43.5372 255.992 57.0609 263.454 65.8133L419.823 237.507C426.884 245.788 439.564 246.143 447.077 238.269Z" fill="#4ECC97"/>
<path d="M239.128 236.492C133.753 240.009 68.625 265.632 14.3285 287.495C2.9056 292.094 -2.9338 304.924 2.2887 316.064C37.1903 390.518 111.076 456.806 156.76 490.186C165.685 496.708 178.018 495.29 184.119 486.109C217.065 436.524 246.065 331.15 261.192 263.073C264.297 249.099 253.486 236.012 239.13 236.491L239.128 236.492Z" fill="#F78239"/>
</svg>
